<?xml version="1.0" encoding="UTF-8"?>
<svg version="1.1" viewBox="0 0 1600 1600" width="1280" height="1280" xmlns="http://www.w3.org/2000/svg">
<path transform="translate(714 373)" d="m0 0c0.644-0.00336 1.29-0.00672 1.95-0.0102 2.12-0.00948 4.25-0.0115 6.37-0.0125 1.48-0.00321 2.96-0.00658 4.45-0.0101 3.11-0.00598 6.21-0.00784 9.32-0.00725 3.97 1.02e-4 7.94-0.0135 11.9-0.0308 3.06-0.0111 6.12-0.0131 9.18-0.0126 1.46-0.00118 2.93-0.00558 4.39-0.0133 2.05-0.00985 4.1-0.0069 6.15-8.95e-4 1.75-0.00214 1.75-0.00214 3.53-0.00432 3.37 0.257 6.09 1.04 9.24 2.25v2h2v4h2v6h2v9h2c0.0606 0.699 0.121 1.4 0.184 2.12 0.0838 0.91 0.168 1.82 0.254 2.76 0.0812 0.905 0.162 1.81 0.246 2.74 0.186 2.39 0.186 2.39 1.32 4.38 0.318 3.6 0.512 7.2 0.719 10.8 0.0755 3.08 0.0755 3.08 1.28 5.19 0.142 1.98 0.226 3.97 0.281 5.96 0.0374 1.19 0.0748 2.39 0.113 3.62 0.0348 1.25 0.0696 2.51 0.105 3.8 0.0689 2.47 0.142 4.93 0.219 7.4 0.0303 1.1 0.0606 2.19 0.0918 3.33 0.162 2.48 0.575 4.52 1.19 6.9 0.0898 1.57 0.131 3.13 0.133 4.7 0.00129 0.898 0.00258 1.8 0.00391 2.72-0.00387 0.932-0.00773 1.86-0.0117 2.82 0.00387 0.917 0.00773 1.83 0.0117 2.78-0.00664 4.65-0.229 9.11-0.887 13.7-0.708 6.36-0.668 12.8-0.855 19.2-0.0561 1.7-0.0561 1.7-0.113 3.43-0.0454 1.54-0.0454 1.54-0.0918 3.11-0.189 2.49-0.189 2.49-1.19 4.49-0.205 2.16-0.366 4.33-0.5 6.5-0.389 6.28-0.389 6.28-1.5 8.5-0.31 2.59-0.51 5.18-0.719 7.79-0.281 2.21-0.281 2.21-1.28 3.21-0.208 1.83-0.367 3.66-0.5 5.5-0.389 5.39-0.389 5.39-1.5 6.5-0.207 1.49-0.367 3-0.5 4.5-0.389 4.39-0.389 4.39-1.5 5.5-0.165 1.15-0.33 2.31-0.5 3.5-0.5 3.5-0.5 3.5-1.5 4.5-0.186 1.79-0.186 1.79-0.375 3.62-0.469 4.26-1.78 7.52-3.62 11.4-5.75-5.26-9.17-11.4-12.8-18.2-5.43-9.98-11.7-18.7-19.5-26.9-2.49-2.63-4.86-5.33-7.22-8.07-4.68-5.23-9.98-9.51-15.5-13.8-0.829-0.684-1.66-1.37-2.51-2.07-6.8-5.27-14.8-8.63-22.8-11.8-2.73-1.18-2.73-1.18-5.19-2.72-2.9-1.67-5.53-2.35-8.79-3.08-5.66-1.28-5.66-1.28-6.75-2.38-1.33-0.206-2.66-0.366-4-0.5-3.89-0.389-3.89-0.389-5-1.5-1.64-0.208-3.29-0.368-4.94-0.5-4.84-0.39-4.84-0.39-7.06-1.5-3.88-0.382-7.79-0.477-11.7-0.625-1.15-0.0443-2.31-0.0886-3.5-0.134-7.98-0.258-15.9-0.216-23.9 0.134-0.986 0.043-1.97 0.086-2.99 0.13-4.31-0.15-4.31-0.15-7.95 1.49-3.36 0.325-6.72 0.514-10.1 0.719-2.8-0.0402-2.8-0.0402-3.91 1.28-1.54 0.159-3.08 0.277-4.62 0.375-4.64 0.41-8.12 1.7-12.4 3.62-2.33 0.333-4.67 0.667-7 1-1.7 0.705-3.4 1.41-5.07 2.19-2.19 0.922-4.39 1.55-6.68 2.19-5.7 1.67-10.9 4.04-16.2 6.62-0.612 0.29-1.22 0.581-1.85 0.88-11.9 5.67-22.7 12.2-33.1 20.5-2.02 1.61-4.07 3.17-6.14 4.71-0.613 0.459-1.23 0.918-1.86 1.39-1.31 0.975-2.63 1.94-3.95 2.9-4.85 3.56-9.32 7.39-13.7 11.5-0.653 0.612-1.31 1.22-1.98 1.85-3.94 3.73-7.71 7.53-11.2 11.7-1.3 1.55-1.3 1.55-2.88 3.11-1.57 1.48-1.57 1.48-2.79 3.82-1.86 3-4.13 5.13-6.62 7.62-1.01 1.66-2.01 3.33-3 5-1.25 1.76-2.52 3.51-3.81 5.25-4.87 6.66-9.56 13.2-13.1 20.7-1.24 2.45-2.63 4.76-4.06 7.1-3.69 6.08-6.75 12.1-9.16 18.8-0.991 2.57-2.13 5.06-3.28 7.57-3.6 7.84-6.7 15.5-8.75 23.9-0.809 2.74-0.809 2.74-2.18 5.69-2.54 5.78-3.67 12-5.06 18.2-0.152 0.664-0.304 1.33-0.461 2.01-5.37 22.8-5.37 22.8-7.93 46.1-0.176 2.81-0.176 2.81-0.679 5.17-0.502 2.67-0.624 5.1-0.626 7.82-0.00473 1.51-0.00473 1.51-0.00955 3.04 0.00202 1.07 0.00405 2.15 0.00613 3.25-9.57e-4 1.11-0.00191 2.23-0.0029 3.37-6.8e-4 2.35 0.00116 4.7 0.00534 7.05 0.00535 3.59 4.76e-5 7.19-0.00635 10.8 6.61e-4 2.29 0.00194 4.57 0.00391 6.86-0.00304 1.61-0.00304 1.61-0.00613 3.25 0.00315 1 0.0063 2.01 0.00955 3.04 7.96e-4 0.88 0.00159 1.76 0.00241 2.67 0.131 2.59 0.571 4.97 1.13 7.5 0.166 1.42 0.309 2.84 0.43 4.27 2.12 23.7 5.64 49.3 15.1 71.4 1.25 2.94 2.04 5.6 2.81 8.69 1.25 4.83 3.12 8.91 5.45 13.3 1.09 2.2 1.85 4.28 2.55 6.63 1.68 5.4 4.29 10.3 6.87 15.3 1.46 2.85 2.87 5.72 4.26 8.61 2.77 5.53 6.1 10.7 9.5 15.8 0.507 0.785 1.01 1.57 1.54 2.38 3.09 4.73 6.42 9.19 9.93 13.6 1.71 2.23 3.11 4.59 4.54 7.01l1.5 1.5c1.5 1.5 1.5 1.5 2.75 3.75 1.53 2.4 2.86 3.93 4.88 5.88 3.09 2.98 5.76 6.14 8.44 9.5 3.24 4.03 6.36 7.23 10.4 10.4 1.67 1.67 3.33 3.33 5 5 7.51 6.86 15.2 13.8 24 19 1.47 1.25 2.94 2.49 4.41 3.75 2.11 1.66 4.4 2.94 6.75 4.23 4.92 2.73 9.59 5.84 14.2 9.02 4.67 3.13 9.56 5.57 14.6 8 1.71 0.874 3.42 1.75 5.12 2.62 3.61 1.81 7.22 3.34 11 4.7 3.77 1.37 7.42 3.05 11.1 4.65 5.58 2.34 11.1 3.93 17 5.3 2.35 0.615 4.38 1.33 6.57 2.35 3.43 1.48 6.5 1.93 10.2 2.38 0.33 0.33 0.66 0.66 1 1 2.2 0.5 4.41 0.949 6.62 1.38 1.81 0.352 1.81 0.352 3.66 0.711 0.706 0.135 1.41 0.269 2.14 0.408 1.98 0.39 3.96 0.8 5.94 1.22 35.6 7.42 74.8 8.31 111 2.29 1.03-0.166 2.05-0.332 3.11-0.502 18-2.83 18-2.83 35.4-7.71 2.83-0.906 5.69-1.6 8.58-2.29 4.55-1.1 8.58-2.63 12.9-4.5 1.79-0.476 3.58-0.933 5.38-1.38 4.77-1.22 8.54-3.06 12.7-5.73 1.97-0.891 1.97-0.891 5.97 0.109v80c-15.7 6.3-15.7 6.3-22 6v2h-7v2h-8v2h-10v2h-8v2c-0.71 0.0606-1.42 0.121-2.15 0.184-0.919 0.0838-1.84 0.168-2.79 0.254-0.917 0.0812-1.83 0.162-2.78 0.246-2.25 0.0769-2.25 0.0769-3.29 1.32-1.98 0.209-3.96 0.368-5.94 0.5-4.18 0.177-4.18 0.177-8.06 1.5-3.08 0.315-6.16 0.511-9.25 0.719-2.71 0.113-2.71 0.113-4.75 1.28-3.41 0.265-6.82 0.444-10.2 0.605-4.01 0.131-4.01 0.131-7.77 1.39-2.3 0.0973-4.61 0.128-6.91 0.129-0.711 0.00175-1.42 0.0035-2.15 0.00531-2.35 0.00441-4.71 0.00148-7.06-0.00189-1.63 6.73e-4 -3.26 0.00164-4.89 0.0029-3.42 0.00148-6.84-6.74e-4 -10.3-0.00534-4.39-0.0057-8.79-0.00241-13.2 0.00357-3.37 0.00361-6.74 0.00247-10.1-1.28e-4 -1.62-6.69e-4 -3.24 1.59e-4 -4.86 0.00248-2.26 0.00253-4.52-0.00131-6.78-0.0069-1.93-0.00119-1.93-0.00119-3.9-0.00241-2.88-0.127-2.88-0.127-3.88-1.13-2.84-0.211-5.66-0.376-8.5-0.5-8.36-0.365-8.36-0.365-9.5-1.5-1.98-0.209-3.96-0.368-5.94-0.5-5.84-0.39-5.84-0.39-8.06-1.5-1.87-0.228-3.75-0.41-5.62-0.562-1-0.0838-2.01-0.168-3.04-0.254-0.771-0.0606-1.54-0.121-2.34-0.184v-2h-12v-2h-8v-2h-8v-2h-8v-2l-3 0.188c-3.63 0.00318-6.45-1.03-9.84-2.36-2.08-0.799-4.16-1.51-6.28-2.19-9.19-2.96-18.1-6.26-27-10-3.31-1.4-6.65-2.68-10-3.92-2.47-0.919-4.91-1.89-7.35-2.88-0.856-0.344-1.71-0.688-2.59-1.04-0.629-0.254-1.26-0.508-1.91-0.77v-2h-4v-2h-4v-2h-4v-2h-4v-2h-4v-2h-3v-2h-4v-2h-4v-2c-0.619-0.144-1.24-0.289-1.88-0.438-2.13-0.562-2.13-0.562-4.12-1.56v-2h-4v-2c-1.98-0.66-3.96-1.32-6-2v-2c-1.32-0.33-2.64-0.66-4-1v-2c-0.866-0.248-1.73-0.495-2.62-0.75-3.59-1.33-6.34-2.94-9.38-5.25v-2h-3v-2h-3v-2c-1.65-0.66-3.3-1.32-5-2v-2h-3v-2h-3v-2h-2v-2h-2v-2h-4v-2h-2v-2h-2v-2h-2v-2h-2v-2c-0.619-0.309-1.24-0.619-1.88-0.938l-4.12-2.06v-2h-2v-2c-0.557-0.248-1.11-0.495-1.69-0.75-2.74-1.48-4.99-3.18-7.31-5.25v-2h-2v-2h-2v-2h-2v-2h-2v-2h-2v-2h-2v-2h-2v-2h-2v-2h-2v-2h-2v-2h-2v-2h-2v-2h-2c-1.59-1.8-1.59-1.8-3.5-4.31-3.91-5.04-8.09-9.63-12.5-14.2-1.88-2.3-2.63-3.55-3-6.45h-2v-2h-2v-2h-2v-2h-2v-4h-2v-2h-2v-3h-2v-3h-2c-1.51-1.9-1.51-1.9-3.12-4.38-0.808-1.22-0.808-1.22-1.63-2.46-1.24-2.16-1.24-2.16-1.24-4.16h-2l-2-6h-2l-2-6h-2l-2-6h-2c-1.59-2.16-1.59-2.16-3.38-5.06l-1.87-3.04c-0.579-0.958-1.16-1.92-1.75-2.9l-1.35-2.18c-1.7-2.83-2.65-4.46-2.65-7.82h-2v-4h-2c-4-6.63-4-6.63-4-10h-2v-4h-2v-4h-2v-4h-2v-4h-2l-1.19-3.44c-1.18-3.16-2.56-6.02-4.25-8.94-2.25-3.92-3.92-7.88-5.53-12.1-1.05-2.59-2.25-5.05-3.53-7.54-6.5-12.8-6.5-12.8-6.5-19h-2v-5h-2v-6h-2v-6h-2v-6h-2v-4h-2v-8h-2c-0.205-0.855-0.41-1.71-0.621-2.59l-0.816-3.35c-0.267-1.1-0.534-2.2-0.809-3.34-0.484-2.62-0.484-2.62-1.75-3.72-0.0408-2-0.0425-4 0-6h-2v-8h-2v-8h-2c-0.481-1.9-0.959-3.79-1.44-5.69-0.267-1.06-0.534-2.11-0.809-3.2-0.249-1.03-0.498-2.05-0.754-3.11l-0.785-2.71c-0.215-2.29-0.215-2.29 0.848-3.97 2.53-1.73 5.02-2.58 7.94-3.51 1.05-0.344 2.1-0.688 3.19-1.04 2.81-0.77 2.81-0.77 5.81-0.77v-2h4v-2h2v-2h4v-2h2v-2h2v-2h2v-2h2v-2h2c0.33-1.32 0.66-2.64 1-4h2c0.66-1.98 1.32-3.96 2-6h2c0.289-0.743 0.578-1.48 0.875-2.25 0.948-2.32 1.97-4.53 3.12-6.75h2l0.312-1.62c0.868-3 2.24-5.61 3.69-8.38h2v-4h2v-4h2v-4h2v-4h2v-4h2v-4h2v-4h2c0.137-1.01 0.137-1.01 0.277-2.04 0.907-3.71 2.54-6.9 4.29-10.3 0.723-1.42 1.45-2.84 2.17-4.26 0.373-0.727 0.746-1.45 1.13-2.2 1.86-3.63 3.69-7.27 5.51-10.9 0.333-0.658 0.667-1.32 1.01-2 1.7-3.39 3.27-6.77 4.61-10.3h2v-4h2c0.112-0.552 0.224-1.1 0.34-1.67 0.774-2.73 1.93-5.06 3.22-7.58 0.455-0.892 0.91-1.78 1.38-2.7 0.524-1.01 0.524-1.01 1.06-2.05h2v-4h2v-4h2v-4h2v-2h2v-4h2c0.237-0.848 0.474-1.7 0.719-2.57 1.46-3.9 3.39-6.93 5.78-10.3 0.403-0.593 0.807-1.19 1.22-1.8 1.04-1.48 2.15-2.91 3.28-4.33h2c0.99-2.97 0.99-2.97 2-6h2v-2h2v-4h2v-2h2c0.99-2.97 0.99-2.97 2-6h2v-2h2v-3h2v-3h2v-2h2v-3h2v-2h2v-2h2c0.371-0.804 0.371-0.804 0.75-1.62 1.56-2.96 3.28-5.67 5.25-8.38h2v-2h3c0.33-1.32 0.66-2.64 1-4h2c0.268-0.578 0.536-1.15 0.812-1.75 1.22-2.31 2.49-4.27 4.19-6.25h2v-2h2v-2h2v-2h2v-2h2v-2h2v-2h2v-2h2v-2h2v-2c3.46-3 3.46-3 6-3v-2h2v-2h2v-2h2v-2h2v-2h3v-2h2v-2h2v-2c1.68-1.51 1.68-1.51 3.88-3.12 0.719-0.539 1.44-1.08 2.18-1.63 1.95-1.24 1.95-1.24 3.95-1.24v-2h2v-2h2v-2c1.98-0.66 3.96-1.32 6-2v-2c1.32-0.33 2.64-0.66 4-1v-2c1.9-1.51 1.9-1.51 4.38-3.12 0.812-0.539 1.62-1.08 2.46-1.63 2.16-1.24 2.16-1.24 4.16-1.24v-2h3v-2h3v-2h2v-2h4v-2h2v-2h4v-2h4v-2h2v-2h4v-2c6.62-4 6.62-4 10-4v-2c0.501-0.245 1-0.49 1.52-0.742 7.02-3.47 14-7.12 20.9-10.8 1.19-0.63 1.19-0.63 2.41-1.27 0.711-0.377 1.42-0.753 2.16-1.14 0.673-0.352 1.35-0.703 2.04-1.07 0.664-0.376 1.33-0.751 2.01-1.14 1.99-0.862 1.99-0.862 5.99-0.862v-2h4v-2h5v-2h6v-2h5v-2h5v-2h6v-2c4.74-2.05 9.51-3.06 14.6-4.12 3.19-0.813 6.15-1.9 9.21-3.09 4.36-1.55 8.87-2.57 13.4-3.67 1.05-0.258 2.11-0.517 3.19-0.783 3.23-0.787 6.45-1.56 9.68-2.34 0.938-0.23 1.88-0.46 2.84-0.697 17.7-4.34 35.8-7.7 54-9.05 2.21-0.136 2.21-0.136 4.17-1.25 1.33-0.138 2.66-0.225 3.99-0.281 1.18-0.0561 1.18-0.0561 2.39-0.113 0.824-0.0348 1.65-0.0696 2.5-0.105 1.62-0.0692 3.24-0.142 4.87-0.219 1.08-0.0454 1.08-0.0454 2.18-0.0918 2.04-0.119 2.04-0.119 3.8-0.692 2.96-0.647 5.75-0.633 8.79-0.643z"/>
<path transform="translate(629 513)" d="m0 0c2.78 0.0108 5.55 1.66e-5 8.33-0.0127 30.3-0.0242 30.3-0.0242 38.9 6.5 1.9 2.41 1.77 3.94 1.78 6.98 0.00946 1.09 0.0189 2.17 0.0287 3.29-0.00485 1.2-0.0097 2.39-0.0147 3.63 0.00665 1.27 0.0133 2.54 0.0201 3.84 0.0181 3.53 0.0175 7.06 0.0139 10.6-6.22e-4 3.8 0.016 7.6 0.0305 11.4 0.0228 6.59 0.0347 13.2 0.0391 19.8 0.00645 9.53 0.0294 19.1 0.0563 28.6 0.0433 15.5 0.0733 30.9 0.0948 46.4 0.021 15 0.0483 30 0.084 45 0.0022 0.925 0.0044 1.85 0.00666 2.8 0.0111 4.64 0.0223 9.28 0.0335 13.9 0.0932 38.5 0.165 77 0.222 116 3.77 1.02 7.33 1.27 11.2 1.46 1.46 0.0773 2.93 0.155 4.39 0.232 1.15 0.0586 1.15 0.0586 2.32 0.118 65.2 3.36 65.2 3.36 91.8 10.4 5.04 1.25 10.1 2.18 15.2 3.14 2.96 0.648 2.96 0.648 3.96 1.65 2.33 0.368 4.66 0.702 7 1v2c1.55-0.0928 1.55-0.0928 3.12-0.188 4.17 0.202 6.25 1.22 9.88 3.19 2.74 0.699 2.74 0.699 5 1v2h6v2h6v2h5v2c0.642 0.0825 1.28 0.165 1.95 0.25 4.25 1.04 7.99 2.86 11.9 4.75 0.831 0.396 1.66 0.793 2.52 1.2 5.56 2.7 11 5.58 16.3 8.74 0.641 0.377 1.28 0.754 1.94 1.14 1.5 0.913 2.94 1.91 4.37 2.92v2c0.619 0.144 1.24 0.289 1.88 0.438 2.12 0.562 2.12 0.562 4.12 1.56v2h4v2h2v2h4v2h2v2h2v2h2v2h4v2h2v2h2v2l2.24 0.746c3.04 1.38 4.67 2.89 6.95 5.32 2.62 2.86 2.62 2.86 5.81 4.94v2h2v2h2v2h2v2h2v2h2v2h2v2h2v2h2v2h2v2h2v2h2v2h2v2h2v2h2v2h2v2h2v2h2v2h2c1.52 1.5 1.52 1.5 3.25 3.56 0.615 0.726 1.23 1.45 1.86 2.2 0.623 0.739 1.25 1.48 1.89 2.24 0.592 0.666 1.18 1.33 1.79 2.02 0.543 0.612 1.09 1.22 1.64 1.86 0.494 0.554 0.987 1.11 1.5 1.68 1.07 1.45 1.07 1.45 1.07 3.45h2v2h2v2h2v2h2v2h2v4h2v2h2v2h2v2h2c0.66 1.98 1.32 3.96 2 6h2v2h2c1.29 1.46 1.29 1.46 2.62 3.38 0.446 0.626 0.892 1.25 1.35 1.9 1.02 1.73 1.02 1.73 1.02 3.73h2v2h2c0.66 1.98 1.32 3.96 2 6h2v2h2v2h2c2 3 2 3 2 6h2v2h2v4h2v2h2v3h2v3h2c0.66 1.65 1.32 3.3 2 5h2c0.66 1.98 1.32 3.96 2 6h2v2h2c0.66 1.98 1.32 3.96 2 6h2c1.38 1.96 2.71 3.97 4 6 0.577 0.742 1.16 1.49 1.75 2.25 1.25 1.75 1.25 1.75 1.25 3.75h2c2 3 2 3 2 6h2c0.66 1.65 1.32 3.3 2 5h2c0.66 1.98 1.32 3.96 2 6h2c0.66 1.98 1.32 3.96 2 6h2c4 5.41 4 5.41 4 8h2c4 5.41 4 5.41 4 8h2c1.14 1.36 1.14 1.36 2.39 3.25 0.463 0.69 0.926 1.38 1.4 2.09 0.481 0.732 0.962 1.46 1.46 2.22 3.28 4.97 6.61 9.62 10.6 14 1.11 1.43 1.11 1.43 1.11 3.43h2v2h2c4 4.35 4 4.35 4 8h2v2h2v2h2v2h2c1.41 1.43 1.41 1.43 3.06 3.44 6.28 7.34 12.7 13.7 20.7 19.1 2.52 1.7 4.85 3.6 7.22 5.5 8.28 5.14 16.8 9.82 26 13 1.08 0.478 2.17 0.956 3.29 1.45 25.8 11.1 59.5 10.8 85.7 1.14 2.04-0.586 2.04-0.586 6.04-0.586v-2h6v-2h5v-2h5v-2h4v-2c1.18-0.412 2.35-0.825 3.56-1.25 2.9-1.08 5.53-2.29 8.19-3.88 2.58-1.49 4.36-2.41 7.25-2.88v-2c1.98-0.66 3.96-1.32 6-2v-2c3.09-1.76 4.23-2 8-2 0.281 3.18 0.0821 4.84-1.41 7.72-1.73 3.56-2.51 6.78-3.28 10.7-0.377 1.87-0.377 1.87-0.762 3.77-0.182 0.941-0.364 1.88-0.551 2.85h-2v8h-2v5h-2v5h-2v5h-2v6h-2v4h-2c-0.268 0.866-0.536 1.73-0.812 2.62-1.16 3.29-2.57 6.29-4.19 9.38h-2c-0.66 1.98-1.32 3.96-2 6h-2c-0.66 1.98-1.32 3.96-2 6h-2c-0.66 1.98-1.32 3.96-2 6h-2c-0.66 1.65-1.32 3.3-2 5h-2c-0.66 1.98-1.32 3.96-2 6h-2v2h-2v2h-2v2h-2v2h-2v3h-2v3h-2v2h-2v2h-3c-0.248 0.619-0.495 1.24-0.75 1.88-1.46 2.48-2.63 3.08-5.25 4.12v2c-1.63 1.48-3.33 2.88-5.06 4.25-3.4 2.71-6.75 5.43-10 8.31-2.94 2.44-2.94 2.44-4.94 2.44v2h-2v2h-2v2h-4v2h-2v2h-4v2c-3 2-3 2-6 2v2h-3v2c-1.77 1.01-3.54 2.01-5.31 3-0.986 0.557-1.97 1.11-2.99 1.69-2.7 1.31-2.7 1.31-5.7 1.31v2h-4v2c-3.09 1.76-4.23 2-8 2v2c-0.641 0.254-1.28 0.508-1.94 0.77-0.865 0.344-1.73 0.688-2.62 1.04-0.92 0.362-1.84 0.724-2.79 1.1-2.82 1.12-2.82 1.12-6.09 2.84-6.2 2.18-12.2 2.23-18.2-0.25-0.763-0.495-1.53-0.99-2.31-1.5v-2h-2v-2c-0.722-0.248-1.44-0.495-2.19-0.75-3.09-1.37-5.32-2.97-7.81-5.25v-2h-2v-2h-2v-2h-2v-2h-2v-2c-0.557-0.248-1.11-0.495-1.69-0.75-2.74-1.48-4.99-3.18-7.31-5.25v-2h-2v-2h-2c-1.51-1.46-1.51-1.46-3.12-3.38-0.808-0.94-0.808-0.94-1.63-1.9-1.24-1.73-1.24-1.73-1.24-3.73h-2c-0.66-1.65-1.32-3.3-2-5h-2v-2h-2v-2h-2v-3h-2v-2h-2v-2h-2c-2-3-2-3-2-6h-2v-2h-2v-2h-2c-0.33-1.32-0.66-2.64-1-4h-2c-0.33-1.32-0.66-2.64-1-4h-2c-1.24-1.35-1.24-1.35-2.6-3.21-0.49-0.668-0.98-1.34-1.48-2.02-0.508-0.706-1.02-1.41-1.54-2.14-0.516-0.699-1.03-1.4-1.56-2.12-3.81-5.24-3.81-5.24-3.81-7.51h-2v-2h-2c-0.66-1.98-1.32-3.96-2-6h-2v-2h-2v-4h-2v-2h-2v-4h-2v-2h-2c-0.66-1.98-1.32-3.96-2-6h-2c-2-3-2-3-2-6h-2c-1.34-1.8-2.6-3.67-3.81-5.56-2.32-3.58-4.64-7.13-7.19-10.6-2-2.88-2-2.88-2-4.88h-2v-4h-2v-2h-2v-4h-2v-2h-2v-4h-2v-3h-2c-0.66-1.65-1.32-3.3-2-5h-2c-1.46-2.65-2-3.89-2-7h-2c-2-3-2-3-2-6h-2c-0.66-1.98-1.32-3.96-2-6h-2c-0.66-1.98-1.32-3.96-2-6h-2c-1.4-2.01-1.4-2.01-2.94-4.69-0.756-1.31-0.756-1.31-1.53-2.64-0.507-0.883-1.01-1.77-1.54-2.68-0.837-1.34-0.837-1.34-1.69-2.71-1.31-2.29-1.31-2.29-1.31-4.29h-2c-0.66-1.98-1.32-3.96-2-6h-2v-4h-2v-2h-2v-4h-2v-2h-2v-4h-2v-2h-2v-4h-2c-2-3-2-3-2-6h-2c-0.66-1.98-1.32-3.96-2-6h-2v-3h-2c-0.66-1.98-1.32-3.96-2-6h-2c-1.29-1.68-1.29-1.68-2.62-3.88-0.446-0.719-0.892-1.44-1.35-2.18-1.02-1.95-1.02-1.95-1.02-3.95h-2v-2h-2v-4h-2v-2h-2v-4h-2v-2h-2v-3h-2v-3h-2c-0.66-1.65-1.32-3.3-2-5h-2v-3h-2v-3h-2v-2h-2c-4-5.41-4-5.41-4-8h-2v-2h-2c-0.33-1.32-0.66-2.64-1-4h-2c-4-5.41-4-5.41-4-8h-2v-2h-2v-2h-2v-3h-2v-2h-2v-2h-2v-2h-2v-2h-2v-2h-2v-2h-2v-2h-2v-2h-2v-2h-2v-2h-2v-2h-2v-2h-2v-2h-2v-2c-1.65-0.66-3.3-1.32-5-2v-2h-2v-2c-1.32-0.33-2.64-0.66-4-1v-2h-2v-2c-1.32-0.33-2.64-0.66-4-1v-2c-1.32-0.33-2.64-0.66-4-1v-2c-1.98-0.66-3.96-1.32-6-2v-2c-1.98-0.66-3.96-1.32-6-2v-2c-0.598-0.144-1.2-0.289-1.81-0.438-1.75-0.45-3.47-0.991-5.19-1.56v-2c-0.598-0.144-1.2-0.289-1.81-0.438-1.75-0.45-3.47-0.991-5.19-1.56v-2h-5v-2h-4v-2h-4v-2l-1.9-0.293c-4.35-0.992-8.47-2.52-12.7-4.02-1.81-0.638-3.62-1.28-5.43-1.91-2.8-0.99-5.6-1.98-8.39-2.98-20.7-7.22-42.9-10.3-64.7-11.5-2.89-0.246-2.89-0.246-4.73-0.744-2.55-0.594-4.94-0.699-7.56-0.783-1.05-0.0369-2.1-0.0738-3.18-0.112-1.66-0.0529-1.66-0.0529-3.35-0.107-8.03-0.28-16-0.627-24-1.41-0.681-0.0284-1.36-0.0567-2.06-0.0859-1.26 1.03-1.26 1.03-1.12 3.29 0.00222 1.02 0.00444 2.05 0.00673 3.1 7.05e-5 1.17 1.41e-4 2.34 2.14e-4 3.54 0.00775 1.94 0.00775 1.94 0.0157 3.92 0.00192 1.37 0.00338 2.74 0.00443 4.1 0.00317 2.95 0.00945 5.9 0.0181 8.86 0.0135 4.66 0.0194 9.33 0.0241 14 0.0111 9.9 0.0307 19.8 0.051 29.7 0.022 10.7 0.0426 21.4 0.0534 32.1 5e-3 4.64 0.0149 9.28 0.0284 13.9 0.00743 2.88 0.0108 5.76 0.013 8.64 0.00278 1.98 0.0106 3.97 0.0185 5.95 7.05e-5 1.17 1.41e-4 2.34 2.14e-4 3.54 0.00222 1.02 0.00444 2.05 0.00673 3.1-0.12 2.29-0.12 2.29-1.12 3.29-9.96 0.671-19.5-0.557-29.2-2.25-1.37-0.23-2.74-0.46-4.11-0.689-9.96-1.69-19.8-3.6-29.6-6.06-0.68-0.169-1.36-0.338-2.06-0.512-11.8-2.96-11.8-2.96-17.5-5.18-3.19-1.22-6.06-1.89-9.44-2.31v-2c-0.722 0.0412-1.44 0.0825-2.19 0.125-3.02-0.134-5.08-0.877-7.81-2.12v-2h-4v-513h2v-3c18.6-4.79 36.2-7.35 55.4-7.26z"/>
<path transform="translate(519,248)" d="m0 0c3.04 0.493 6.02 1.23 9 2v2h6v2c0.847 0.129 1.69 0.258 2.57 0.391 3.52 0.624 6.91 1.46 10.4 2.36 6.93 1.76 13.9 3.39 20.9 4.94 0.942 0.214 1.88 0.429 2.85 0.649 5.68 1.25 11.2 2.03 17 2.43 2.31 0.235 2.31 0.235 5.31 1.24 2 0.2 4 0.363 6 0.5 3.27 0.225 5.88 0.46 9 1.5 1.87 0.138 3.75 0.225 5.62 0.281 1.1 0.0374 2.2 0.0748 3.33 0.113 1.72 0.0522 1.72 0.0522 3.48 0.105 2.27 0.069 4.54 0.142 6.81 0.219 1.51 0.0454 1.51 0.0454 3.05 0.0918 2.7 0.189 2.7 0.189 4.48 0.692 2.84 0.637 5.49 0.636 8.4 0.649 1.27 0.00834 2.54 0.0167 3.84 0.0253 1.4 0.00431 2.81 0.00853 4.21 0.0127 1.48 0.00794 2.96 0.0163 4.44 0.0251 3.19 0.018 6.37 0.0331 9.56 0.0458 5.04 0.0202 10.1 0.0479 15.1 0.0767 10.7 0.0601 21.4 0.112 32.1 0.163 11.5 0.0551 23.1 0.112 34.6 0.178 5.01 0.0283 10 0.0519 15 0.0719 3.12 0.0134 6.23 0.0308 9.35 0.0493 1.44 0.00775 2.89 0.0138 4.33 0.0181 1.97 0.00607 3.95 0.0187 5.92 0.0316 1.1 0.00515 2.21 0.0103 3.34 0.0156 2.77 0.127 5.26 0.54 7.96 1.14 1.89 0.131 3.78 0.222 5.67 0.281 1.59 0.0561 1.59 0.0561 3.21 0.113 2.22 0.0707 4.44 0.141 6.66 0.211 1.05 0.0374 2.11 0.0748 3.19 0.113 1.44 0.0454 1.44 0.0454 2.92 0.0918 2.35 0.189 2.35 0.189 4.35 1.19 3.66 0.265 7.31 0.445 11 0.605 5.93 0.294 5.93 0.294 7.03 1.39 2.53 0.237 5.03 0.422 7.56 0.562 0.711 0.0432 1.42 0.0864 2.15 0.131 1.76 0.106 3.52 0.207 5.28 0.307v2h12v2h11v2c0.71-0.0116 1.42-0.0232 2.15-0.0352 1.38-0.0135 1.38-0.0135 2.79-0.0273 0.917-0.0116 1.83-0.0232 2.78-0.0352 2.29 0.0977 2.29 0.0977 3.29 1.1 1.51 0.232 3.04 0.412 4.56 0.562 0.826 0.0838 1.65 0.168 2.5 0.254 0.638 0.0606 1.28 0.121 1.93 0.184v2h8v2h8v2c0.825-0.0619 1.65-0.124 2.5-0.188 3.43 0.184 5.86 1.03 9.03 2.26 5.09 1.9 10.3 3.47 15.5 5.11 1.16 0.368 2.31 0.736 3.5 1.12 2.83 0.901 5.66 1.8 8.5 2.7v2c1.67 0.333 3.33 0.667 5 1s3.33 0.667 5 1v2c0.66 0.103 1.32 0.206 2 0.312 6.71 1.54 12.6 4.42 18.7 7.6 2.11 0.997 4.02 1.62 6.3 2.09v2h4v2h4v2h3v2h4v2h3v2h4v2h3v2c0.619 0.144 1.24 0.289 1.88 0.438 2.12 0.562 2.12 0.562 4.12 1.56v2c0.866 0.186 0.866 0.186 1.75 0.375 2.27 0.631 4.18 1.51 6.25 2.62v2c0.763 0.289 1.53 0.577 2.31 0.875 2.69 1.13 2.69 1.13 5.69 3.12v2c1.98 0.66 3.96 1.32 6 2v2c0.763 0.289 1.53 0.577 2.31 0.875 2.69 1.13 2.69 1.13 5.69 3.12v2c2.47 0.99 2.47 0.99 5 2v2h2v2h3v2h3v2h2v2h2v2h2v2h2v2h2v2c0.577 0.0825 1.16 0.165 1.75 0.25 2.9 0.968 4.29 2.44 6.25 4.75v2h2v2h2v2h2v2h2v2h2v2h2c3 3.46 3 3.46 3 6h2v2h2v2h2v2h2v2h2v2h2v3h2v3h2v2h2v2h2v3h2v3h2c0.66 1.65 1.32 3.3 2 5h2c4 5.41 4 5.41 4 8h2v2h2c3 5.75 3 5.75 3 8h2c1.51 1.86 1.51 1.86 3.12 4.31 0.539 0.801 1.08 1.6 1.63 2.43 1.24 2.26 1.24 2.26 1.24 5.26h2c2 3 2 3 2 6h2v3h2v4h2v3h2v3h2v4h2v4h2c0.66 1.98 1.32 3.96 2 6h2v4h2v4h2c2.33 3.93 4.35 7.73 6.07 12 1.65 3.62 3.72 7.04 5.72 10.5 1.21 2.55 1.21 2.55 1.21 6.55h2v4h2v4h2v4h2v5h2v4h2v4h2v4h2v6h2v4h2v4h2c0.205 0.71 0.41 1.42 0.621 2.15 0.269 0.919 0.539 1.84 0.816 2.79 0.267 0.917 0.534 1.83 0.809 2.78 0.544 2.23 0.544 2.23 1.75 3.29 0.0406 1.67 0.0427 3.33 0 5h2v3c-2.96 1.64-5.55 2.39-8.88 2.94-4.14 0.764-7.41 2.02-11.1 4.06h-2v2h-2v2c-1.65 1.35-3.32 2.69-5 4-0.33 0.66-0.66 1.32-1 2h-2v2h-2c-0.33 1.32-0.66 2.64-1 4h-2c-0.227 0.804-0.454 1.61-0.688 2.44-1.07 2.92-2.2 5.22-3.75 7.88-2.53 4.39-4.15 8.83-5.56 13.7h-2v5h-2v4h-2v6h-2v4h-2v6h-2v6h-2v5h-2c0.0438 0.726 0.0877 1.45 0.133 2.2-0.148 3.11-0.869 4.84-2.26 7.61-2.15 4.51-3.99 9.06-5.69 13.8-2.25 6.14-4.72 12.1-7.38 18.1-0.333 0.754-0.666 1.51-1.01 2.29-1.72 3.84-3.6 7.43-5.8 11-0.696 2.19-0.696 2.19-1 4h-2v4h-2v4h-2c-0.144 0.598-0.289 1.2-0.438 1.81-0.45 1.75-0.991 3.47-1.56 5.19h-2v3h-2v4h-2v3h-2v4h-2v3h-2v3h-2c-0.66 1.98-1.32 3.96-2 6h-2c-0.33 1.32-0.66 2.64-1 4h-2c-0.33 1.32-0.66 2.64-1 4h-2c-0.33 1.32-0.66 2.64-1 4h-2c-0.289 0.763-0.577 1.53-0.875 2.31-1.12 2.69-1.12 2.69-3.12 5.69h-2v2h-2c-0.66 1.65-1.32 3.3-2 5h-2v2h-2c-0.66 1.32-1.32 2.64-2 4h-2v2h-2v2c-0.844 0.0103-1.69 0.0206-2.56 0.0312-7.99 0.0983-16 0.201-24 0.308-4.11 0.055-8.21 0.108-12.3 0.158-3.97 0.048-7.94 0.1-11.9 0.156-1.51 0.0203-3.02 0.039-4.52 0.0561-7.63 0.0877-15.2 0.286-22.7 1.29-2.68 0.0996-5.31 0.0488-8 0 0-3.8 0.94-4.35 3.5-7.06 8.97-9.77 17.1-20.2 23.4-31.9 1.54-2.79 3.33-5.4 5.12-8.03 2.35-3.58 3.82-7.1 5.25-11.1 0.746-1.9 0.746-1.9 2.18-4.27 3.55-5.96 5.69-12.7 7.75-19.3 0.809-2.3 0.809-2.3 2.22-5.46 1.61-3.75 2.75-7.59 3.78-11.5 0.191-0.716 0.382-1.43 0.578-2.17 0.4-1.51 0.797-3.02 1.19-4.53 0.595-2.27 1.2-4.54 1.81-6.81 2.18-8.22 4.03-16.4 5.23-24.8 0.197-1.27 0.394-2.55 0.598-3.86 2.55-18.9 2.7-38.1 2.4-57.1-0.00725-0.848-0.0145-1.7-0.022-2.57-0.263-23.2-3.94-47-9.98-69.4-0.346-1.36-0.689-2.73-1.03-4.09-1.58-6.21-3.4-12-5.97-17.9-0.808-2.27-1.6-4.54-2.38-6.81-1.84-5.22-3.95-10.1-6.52-15-1.11-2.21-1.11-2.21-2.42-5.89-5.31-14.7-14.9-29.1-24.9-41.1-1.72-2.09-3.31-4.23-4.9-6.43-2.46-3.32-5.19-6.17-8.16-9.04-1.82-1.81-3.48-3.7-5.15-5.65-6.87-7.93-14.3-14.7-22.6-21.1-0.82-0.674-1.64-1.35-2.48-2.04-2.45-1.99-2.45-1.99-5.04-3.47-2.58-1.55-4.74-3.29-7.04-5.23-8.52-6.88-18.1-11.7-27.9-16.5-2.82-1.38-5.57-2.78-8.27-4.4-2.54-1.53-5.17-2.47-7.96-3.47-2.62-1.01-5.13-2.18-7.67-3.38-4.31-1.99-8.55-3.51-13.1-4.73-2.63-0.817-5.08-1.9-7.6-3-3.22-1.32-6.54-2.26-9.89-3.21-0.743-0.214-1.49-0.428-2.25-0.648-2.25-0.644-4.5-1.28-6.75-1.91-1.23-0.353-2.47-0.706-3.74-1.07-7.16-1.99-14.4-3.64-21.6-5.12-0.82-0.167-1.64-0.334-2.49-0.506-4.76-0.936-9.48-1.62-14.3-2.05-1.83-0.253-1.83-0.253-3.83-1.25-2.31-0.206-4.62-0.366-6.94-0.5-6.73-0.39-6.73-0.39-10.1-1.5-1.65-0.137-3.31-0.224-4.97-0.281-0.983-0.0374-1.97-0.0748-2.98-0.113-1.03-0.0348-2.05-0.0696-3.11-0.105-11.3-0.394-11.3-0.394-16.8-1.02-6.22-0.667-12.4-0.622-18.7-0.602-1.75-0.0058-1.75-0.0058-3.54-0.0117-5.62 0.00633-11.1 0.17-16.7 0.887-5.5 0.612-11.1 0.659-16.6 0.855-0.942 0.0374-1.88 0.0748-2.86 0.113-0.849 0.0303-1.7 0.0606-2.57 0.0918-2.39 0.117-2.39 0.117-5.22 1.19-1.89 0.155-3.79 0.275-5.69 0.375-7.21 0.511-14.2 1.82-21.2 3.23-2.69 0.518-5.38 0.973-8.08 1.43-7.72 1.31-15.4 2.84-23.1 4.47-0.964 0.202-1.93 0.403-2.92 0.611-5.58 1.21-10.7 2.83-16 4.89-2.03 0.524-4.07 1.01-6.12 1.44-12.6 2.74-12.6 2.74-24.7 7.19-3.85 1.66-7.95 3.29-12.2 3.38-3.33-2.21-4.19-5.68-5.5-9.31-1.23-3.39-2.46-6.62-4.08-9.84-1.21-2.42-2-4.5-2.67-7.1-2.33-8.12-5.63-15.9-8.75-23.8-0.409-1.04-0.817-2.07-1.24-3.14-1.38-3.49-2.79-6.94-4.32-10.4-1.55-3.77-2.69-7.55-3.79-11.5-0.468-2.01-0.468-2.01-1.65-3.04-0.0406-1.67-0.0427-3.33 0-5h-2v-4h-2v-6h-2v-6h-2v-6h-2c-1.6-3.51-2.22-6.14-2-10h-2v-5h-2v-4h-2c-0.382-1.66-0.714-3.32-1-5 0.33-0.33 0.66-0.66 1-1z"/>
<path transform="translate(812,443)" d="m0 0h7v2c0.681-0.0412 1.36-0.0825 2.06-0.125 3.54 0.15 6.57 1.07 9.94 2.12v2h7v2h8v2h8v2h8v2c0.699-0.0116 1.4-0.0232 2.12-0.0352 1.37-0.0135 1.37-0.0135 2.76-0.0273 1.36-0.0174 1.36-0.0174 2.74-0.0352 2.38 0.0977 2.38 0.0977 4.38 1.1 1.81 0.204 3.62 0.365 5.44 0.5 3.13 0.233 5.58 0.505 8.56 1.5 2.07 0.274 4.14 0.508 6.21 0.719 1.87 0.191 1.87 0.191 3.77 0.387 1.3 0.13 2.61 0.26 3.95 0.395 1.9 0.195 1.9 0.195 3.85 0.395 3.74 0.38 7.48 0.746 11.2 1.11 1.01 0.0979 2.02 0.196 3.06 0.297 7.61 0.691 15.2 0.988 22.9 1.21 2.08 0.0597 4.16 0.125 6.24 0.191 7.11 0.215 14.2 0.331 21.3 0.0291 3.17 0.345 4.99 1.4 7.55 3.28 0.812 2.19 0.812 2.19 1 4h2v2h2v4h2v4h2v4h2v4h2v4h2v4h2v4h2v4h2c0.326 0.953 0.652 1.91 0.988 2.89 0.441 1.27 0.883 2.53 1.32 3.8 0.644 1.86 0.644 1.86 1.3 3.76 1.24 3.47 1.24 3.47 2.93 6.08 1.78 3.01 2.61 5.91 3.52 9.28 0.335 1.23 0.67 2.45 1.02 3.72 0.304 1.14 0.608 2.29 0.922 3.47 0.364 1.31 0.364 1.31 0.734 2.66 0.474 1.77 0.88 3.55 1.27 5.34-2.18 2.18-7.3 1.24-10.3 1.28-0.949 0.0184-1.9 0.0368-2.88 0.0558-3.05 0.0589-6.11 0.112-9.16 0.163-3.02 0.0517-6.04 0.105-9.06 0.163-1.88 0.0361-3.76 0.0686-5.64 0.0969-6.39 0.122-12.5 0.658-18.9 1.24v288c51.7 0.124 51.7 0.124 104 0.25 16.3 0.0546 16.3 0.0546 32.8 0.11 9.81 0.0134 9.81 0.0134 19.6 0.0214 4.33 0.00369 8.66 0.0185 13 0.0405 48.5 0.905 48.5 0.905 93.5-15.1 2.57-1.36 2.57-1.36 5.57-1.36v-2c1.54-1.11 1.54-1.11 3.62-2.31 2.79-1.66 5.3-3.37 7.75-5.5 2.62-2.19 2.62-2.19 4.62-2.19v-2h2v-2h2c0.371-0.866 0.371-0.866 0.75-1.75 1.44-2.6 2.99-4.33 5.25-6.25h3c5.51 21.5 9.37 41.9 9.32 64.2-0.00315 2.9 0.0203 5.79 0.0457 8.69 0.0669 19.8-1.83 40.7-8.94 59.4-1.26 3.31-1.98 6.24-2.42 9.74h-2v4h-2c-0.0619 0.763-0.124 1.53-0.188 2.31-1.16 5.25-3.48 9.86-5.81 14.7h-2v3h-2v4h-2v3h-2v3h-2v3h-2v3h-2v3h-2v2h-2v2h-2c-0.33 1.32-0.66 2.64-1 4h-2v2h-2v2h-2v2h-2v2h-2v2c-1.67 1.57-3.41 3.06-5.19 4.5-0.963 0.794-1.93 1.59-2.92 2.41-2.62 1.89-4.85 3.07-7.89 4.09v2h-2v2h-4v2h-2v2h-2v2c-3 2-3 2-6 2v2c-1.65-0.33-3.3-0.66-5-1-0.0198-0.659-0.0396-1.32-0.0601-2-0.663-21-2.11-41-11.9-60-0.468-0.931-0.936-1.86-1.42-2.82-8.96-16.6-23.9-27.1-41.7-32.9-15-4.01-30.2-3.89-45.6-3.85-3.52 0.00439-7.04-0.0156-10.6-0.0332-6.64-0.03-13.3-0.0419-19.9-0.0456-11.9-0.00671-23.9-0.0357-35.8-0.0851-4.18-0.0165-8.35-0.0219-12.5-0.0184-3.19 5.39e-4 -6.39-0.0112-9.58-0.0207-1.73 0.00619-1.73 0.00619-3.49 0.0125-1.05-0.00538-2.11-0.0108-3.19-0.0163-0.914-3.35e-4 -1.83-6.71e-4 -2.77-0.00102-2.58-0.265-4.22-0.946-6.44-2.25v-2h-2v-2h-2v-2h-2v-2h-2v-2c-0.557-0.247-1.11-0.495-1.69-0.75-2.74-1.48-4.99-3.18-7.31-5.25v-2h-2v-2h-2v-2h-2v-2h-2v-2c-0.681-0.186-1.36-0.371-2.06-0.562-3.51-1.72-5.57-3.93-8.19-6.78-1.81-1.72-3.47-2.66-5.75-3.66v-2h-2v-2c-1.65-0.66-3.3-1.32-5-2v-2h-3v-2h-3v-2h-2v-2h-4v-2h-2v-2h-4v-2h-4v-2h-2v-2h-4v-2c-0.791-0.226-1.58-0.451-2.4-0.684-4.66-1.7-8.87-4.01-13.2-6.38-1.68-0.912-3.36-1.82-5.04-2.72-0.737-0.401-1.47-0.802-2.23-1.22-2.03-0.966-3.91-1.54-6.1-2v-2c-0.825-0.0825-1.65-0.165-2.5-0.25-4.12-0.883-8.18-2.06-11.5-4.75-0.886-3.38-1.12-6.55-1.11-10-2.11e-4 -1.49-2.11e-4 -1.49-4.27e-4 -3.01 0.00496-1.09 0.00992-2.17 0.015-3.29 0.00126-1.16 0.00252-2.32 0.00383-3.51 0.00445-3.21 0.0134-6.42 0.0242-9.63 0.0105-3.46 0.0151-6.93 0.0203-10.4 0.00971-6 0.0227-12 0.0377-18 0.0234-9.49 0.0364-19 0.0477-28.5 4e-3 -3.25 0.00807-6.5 0.0122-9.75 0.00102-0.812 0.00204-1.62 0.00309-2.46 0.0117-9.24 0.0256-18.5 0.0404-27.7 0.00203-1.27 0.00203-1.27 0.0041-2.56 0.0222-13.7 0.0521-27.4 0.0839-41.1 0.0324-14.1 0.0533-28.1 0.0643-42.2 0.00722-8.67 0.0239-17.3 0.0528-26 0.019-5.94 0.0271-11.9 0.0266-17.8 6.3e-5 -3.43 0.00502-6.85 0.0232-10.3 0.0172-3.72 0.0158-7.43 0.00988-11.2 0.00942-1.08 0.0188-2.16 0.0285-3.27-0.0332-6.21-0.829-10.8-3.38-16.4-0.327-0.817-0.655-1.63-0.992-2.48-0.291-0.709-0.583-1.42-0.883-2.15-1.65-4.09-3.15-8.22-4.62-12.4-2.03-5.73-4.2-11.4-6.5-17-0.981-2.44-1.96-4.87-2.94-7.31-0.256-0.637-0.511-1.27-0.774-1.93-2.11-5.26-4.13-10.6-6.11-15.9-1.15-2.97-1.15-2.97-2.73-5.95-1.35-2.76-2.16-5.23-2.88-8.21-2.01-9.01-2.01-9.01-6.56-16.8-0.141-2.67-0.0425-5.32 0-8z"/>
<path transform="translate(851,991)" d="m0 0c4.8 1.44 7.75 4.33 11.2 7.81 0.57 0.57 1.14 1.14 1.73 1.73 1.2 1.2 2.39 2.4 3.58 3.61 1.83 1.85 3.67 3.69 5.52 5.53 1.16 1.17 2.33 2.34 3.49 3.51 0.553 0.552 1.11 1.1 1.68 1.67 3.84 3.91 3.84 3.91 3.84 6.14h2v2h2c1.25 1.41 2.42 2.88 3.56 4.38 3.63 4.67 7.49 9.01 11.6 13.3 1.92 2.37 2.91 4.45 3.88 7.32h2v2h2c1.18 1.64 1.18 1.64 2.44 3.81 1.23 2.11 2.29 3.92 4.04 5.64 1.95 1.98 3.12 4.16 4.53 6.55 1.5 2.16 3.02 4.3 4.56 6.44 0.892 1.24 1.78 2.48 2.68 3.72 0.456 0.633 0.912 1.27 1.38 1.92 1.35 1.89 2.7 3.78 4.05 5.67 5.31 7.46 5.31 7.46 10.8 14.8 2.06 2.72 3.89 5.45 5.56 8.44 0.402 0.691 0.804 1.38 1.22 2.09 0.443 0.773 0.887 1.55 1.34 2.34 0.414 0.721 0.828 1.44 1.25 2.18 2.91 5.85 3.48 10.9 3.49 17.3 0.00844 0.875 0.0169 1.75 0.0256 2.65 0.0257 2.88 0.0379 5.76 0.0504 8.64 0.0162 2 0.0334 4.01 0.0515 6.01 0.0456 5.27 0.0805 10.5 0.112 15.8 0.052 8.44 0.117 16.9 0.188 25.3 0.0229 2.95 0.0391 5.91 0.0547 8.86 0.0134 1.8 0.027 3.6 0.0409 5.4 0.00392 1.24 0.00392 1.24 0.00792 2.5-0.0608 4.08-0.0608 4.08 1.17 7.89 0.184 1.96 0.322 3.91 0.438 5.88 1.7 22.9 8.64 46.4 20 66.3 2.54 4.49 2.54 4.49 2.54 7.78h2v3h2v4h2v2h2v2h2v4h2v2h2v2h2c0.247 0.949 0.495 1.9 0.75 2.88 1.47 3.67 1.92 3.52 5.25 5.12 1.27 1.18 2.5 2.42 3.69 3.69 3.6 3.73 7.44 6.82 11.6 9.87 0.557 0.477 1.11 0.954 1.69 1.45v2h4v2h2v3c-7.02 1.89-13.8 3.29-21 4-0.33 0.33-0.66 0.66-1 1-1.64 0.208-3.29 0.368-4.94 0.5-3.67 0.252-3.67 0.252-7.06 1.5-2.88 0.0719-5.74 0.0929-8.62 0.0625-0.802-0.00451-1.6-0.00902-2.43-0.0137-1.98-0.0118-3.96-0.0297-5.95-0.0488v2c-7.68 0.0231-15.4 0.0409-23 0.0518-3.56 0.00523-7.13 0.0123-10.7 0.0236-4.09 0.0129-8.19 0.0178-12.3 0.0222-1.93 0.00774-1.93 0.00774-3.9 0.0156-1.18 7.55e-5 -2.36 1.51e-4 -3.58 2.29e-4 -1.57 0.00333-1.57 0.00333-3.17 0.00673-2.36-0.12-2.36-0.12-3.36-1.12-2.48-0.211-4.95-0.376-7.44-0.5-7.29-0.366-7.29-0.366-9.56-1.5-2.59-0.31-5.18-0.51-7.79-0.719-2.21-0.281-2.21-0.281-3.21-1.28-2.22-0.4-4.46-0.768-6.69-1.12-7.07-1.24-13.9-3.09-20.7-5.25-0.902-0.28-1.8-0.56-2.73-0.848-5.49-1.78-10.6-3.96-15.7-6.65-3.32-1.68-6.73-2.88-10.2-4.13-1.67-0.661-3.34-1.32-5-2v-2h-2v-2h-4v-2h-4v-2h-2v-2h-4v-2h-2v-2h-4v-2h-2v-4h2v-2h2v-2h2v-2h2v-2h2v-2h2v-2h2v-2h2v-2h2v-3h2c0.66-1.98 1.32-3.96 2-6h2v-2h2v-4h2v-4h2c0.269-0.843 0.539-1.69 0.816-2.55 1.23-3.59 2.66-7.06 4.12-10.6 2.66-6.52 4.52-13 6.06-19.9 0.54-2.04 1.08-4.08 1.62-6.12 1.17-4.64 1.84-9.14 2.16-13.9 0.211-1.96 0.211-1.96 1.21-3.96 0.14-1.55 0.226-3.1 0.281-4.65 0.0374-0.923 0.0748-1.85 0.113-2.8 0.0348-0.967 0.0696-1.93 0.105-2.93 0.0691-1.9 0.142-3.81 0.219-5.71 0.0303-0.846 0.0606-1.69 0.0918-2.56 0.189-2.35 0.189-2.35 0.694-4 0.723-3.44 0.625-6.85 0.609-10.3 1.49e-4 -0.811 2.98e-4 -1.62 4.51e-4 -2.46-6.95e-4 -2.72-0.00854-5.44-0.0163-8.16-0.00192-1.95-0.00338-3.9-0.00443-5.85-0.00316-4.2-0.00943-8.4-0.0181-12.6-0.0135-6.63-0.0194-13.3-0.0241-19.9-0.0111-14.1-0.0307-28.2-0.051-42.2-0.022-15.2-0.0426-30.4-0.0534-45.6-5e-3 -6.6-0.0149-13.2-0.0284-19.8-0.00743-4.1-0.0108-8.19-0.013-12.3-0.00188-1.91-0.0055-3.81-0.0109-5.72-0.00715-2.59-0.00826-5.18-0.00778-7.78-0.00359-0.765-0.00719-1.53-0.0109-2.32 0.0103-5.18 0.0103-5.18 1.12-6.29z"/>
<path transform="translate(1366,410)" d="m0 0h2v2h2c0.0606 0.927 0.121 1.85 0.184 2.81 0.0838 1.2 0.168 2.4 0.254 3.63 0.0812 1.19 0.162 2.39 0.246 3.62-0.00703 2.83-0.00703 2.83 1.32 3.94 0.208 1.47 0.367 2.95 0.5 4.44 0.291 3.41 0.291 3.41 1.5 6.56 1.36 7.24 2.13 14.5 2.55 21.9 0.042 0.73 0.0841 1.46 0.127 2.21 0.394 7.4 0.47 14.8 0.448 22.2-0.00537 2.2-2.07e-6 4.39 0.00635 6.59 0.00383 7.45-0.16 14.9-0.59 22.3-0.0597 1.03-0.0597 1.03-0.121 2.09-0.561 8.82-2.08 17.1-4.77 25.5-0.77 2.44-0.77 2.44-1.15 5.86-0.499 3.37-1.42 6.04-2.67 9.18-1.51 3.99-2.65 8.1-3.83 12.2h-2c0.0412 0.722 0.0825 1.44 0.125 2.19-0.134 3.02-0.877 5.08-2.12 7.81h-2v4h-2v4h-2v4h-2c-0.155 0.804-0.155 0.804-0.312 1.62-0.868 3-2.24 5.61-3.69 8.38h-2c-0.268 0.743-0.536 1.48-0.812 2.25-1.14 2.64-2.28 4.61-4.19 6.75h-2c-0.33 1.32-0.66 2.64-1 4h-2c-0.33 1.32-0.66 2.64-1 4h-2v2h-2v2h-2v2h-2v2h-2v2h-2v2h-2v2c-5.41 4-5.41 4-8 4v2h-2v2c-1.94 1.33-1.94 1.33-4.56 2.81-3.22 1.86-6.32 3.74-9.31 5.94-5.9 4.25-5.9 4.25-10.1 4.25 0.0105-0.613 0.0209-1.23 0.0317-1.86 0.268-18.1-0.49-34.1-6.69-51.3-1.05-2.93-1.85-5.78-2.34-8.86h-2c-0.315-0.58-0.629-1.16-0.953-1.76-3.89-7.1-7.71-13.2-13.7-18.7-1.39-1.52-1.39-1.52-1.39-3.52-0.567-0.267-1.13-0.534-1.72-0.809-3.21-1.68-6.1-3.77-9.06-5.85-2.12-1.28-3.8-1.89-6.22-2.34v-2c-1.33-0.186-1.33-0.186-2.69-0.375-3.31-0.625-3.31-0.625-5.55-1.64-4.59-1.64-9.33-1.4-14.2-1.55-4.99-0.613-7.53-2.12-10.7-6-1.47-2.62-2.52-4.85-3.56-7.62-2.05-5.36-4.64-10.4-7.31-15.4-0.419-0.799-0.838-1.6-1.27-2.42-1.99-3.74-4.04-7.39-6.34-11-2.72-4.27-4.76-8.77-6.83-13.4-3.27-7.1-6.92-13.4-11.6-19.6-1.53-2.31-2.78-4.5-4-7 0.33-0.99 0.66-1.98 1-3 0.754 0.00222 1.51 0.00444 2.29 0.00673 7.25 0.0204 14.5 0.0354 21.7 0.0451 3.72 0.00513 7.44 0.012 11.2 0.0236 47.8 0.411 47.8 0.411 94.8-7.08 0.33-0.33 0.66-0.66 1-1 2-0.0408 4-0.0425 6 0v-2h6v-2h4v-2h4v-2h5v-2h3v-2c2.65-1.46 3.89-2 7-2v-2c5.41-4 5.41-4 8-4v-2h2v-2h2v-2h2v-2h2v-2h2v-3h2v-2h2v-2h2c0.289-0.577 0.577-1.15 0.875-1.75l3.12-6.25h2v-2z"/>
<path transform="translate(577 1175)" d="m0 0c13 0.125 13 0.125 16.1 3.19 2 0.209 4 0.368 6 0.5 5.89 0.389 5.89 0.389 7 1.5 2.5 0.211 4.99 0.376 7.5 0.5 7.36 0.365 7.36 0.365 8.5 1.5 1.4 0.144 2.81 0.227 4.22 0.281 1.27 0.0561 1.27 0.0561 2.57 0.113 1.34 0.0522 1.34 0.0522 2.71 0.105 1.76 0.0686 3.52 0.141 5.28 0.219 0.784 0.0303 1.57 0.0606 2.38 0.0918 1.84 0.189 1.84 0.189 2.84 1.19 2.14 0.122 4.28 0.18 6.41 0.211 1.32 0.0284 2.64 0.0567 4 0.0859 2.1 0.041 4.2 0.0779 6.3 0.104 2.03 0.0279 4.05 0.0738 6.08 0.122 1.21 0.0198 2.43 0.0396 3.68 0.0601 4.09 0.482 6.85 1.64 10.5 3.42 0.0198 0.759 0.0396 1.52 0.0601 2.3 0.68 24.8 2.71 47.7 10.4 71.5 0.566 2.22 0.566 2.22 0.566 6.22h2v4h2v6h2v4h2v4h2v4h2v3h2v4h2v3h2v3h2v2h2c0.66 1.98 1.32 3.96 2 6h2v2h2v2h2v2h2v2h2v2h2c1.62 1.38 1.62 1.38 3 3v2h2v2c0.619 0.309 1.24 0.619 1.88 0.938l4.12 2.06v2h2v2c1.32 0.33 2.64 0.66 4 1v2c1.32 0.33 2.64 0.66 4 1v5c-0.57 0.0856-1.14 0.171-1.73 0.26-2.57 0.388-5.14 0.783-7.71 1.18-0.898 0.135-1.8 0.269-2.72 0.408-0.854 0.132-1.71 0.264-2.59 0.4-1.19 0.181-1.19 0.181-2.4 0.365-1.86 0.214-1.86 0.214-2.86 1.39-1.81 0.209-3.62 0.368-5.44 0.5-3.93 0.214-3.93 0.214-7.56 1.5-2.72 0.0718-5.41 0.093-8.12 0.0625-0.754-0.00451-1.51-0.00902-2.29-0.0137-1.86-0.0118-3.73-0.0297-5.59-0.0488v2c-7.81 0.0231-15.6 0.0409-23.4 0.0518-3.62 0.00523-7.25 0.0123-10.9 0.0236-3.49 0.0108-6.99 0.0168-10.5 0.0194-1.99 0.00276-3.98 0.0106-5.96 0.0184-1.8 1.13e-4 -1.8 1.13e-4 -3.64 2.29e-4 -1.06 0.00222-2.13 0.00444-3.22 0.00673-2.4-0.12-2.4-0.12-3.4-1.12-2.44-0.162-4.87-0.279-7.31-0.375-6.07-0.313-11.6-1.11-17.5-2.76-3.06-0.827-6.13-1.48-9.24-2.1-8.34-1.71-16.4-4.03-24.5-6.7-0.99-0.324-1.98-0.648-3-0.981-5.7-1.93-11-4.19-16.3-7.03-2.06-0.995-3.94-1.59-6.17-2.05v-2h-4v-2c-0.598-0.144-1.2-0.289-1.81-0.438-1.75-0.45-3.47-0.991-5.19-1.56v-2h-3v-2h-4v-2h-2v-2h-4v-2h-2v-2h-2c0.547-3.37 1.05-5.08 3-8h3v-2h2v-2h2v-2h2v-2h2c0.249-0.549 0.498-1.1 0.754-1.66 2.02-3.78 4.7-7.07 7.27-10.5 1.97-2.85 3.5-5.72 4.97-8.85h2v-4h2c0.137-0.561 0.273-1.12 0.414-1.7 1.38-5.43 2.86-10.9 5.15-16 2.51-5.78 3.67-11.3 4.19-17.5 0.246-1.82 0.246-1.82 1.25-2.82 0.207-1.49 0.367-3 0.5-4.5 0.389-4.39 0.389-4.39 1.5-5.5 0.211-2.5 0.376-4.99 0.5-7.5 0.365-7.36 0.365-7.36 1.5-8.5 0.147-2.21 0.227-4.42 0.281-6.62 0.0184-0.662 0.0368-1.32 0.0558-2.01 0.0589-2.12 0.112-4.25 0.163-6.37 0.0675-2.79 0.141-5.58 0.219-8.38 0.0303-1.25 0.0606-2.49 0.0918-3.77 0.291-4.38 0.514-3.82 5.13-4.04z"/>
</svg>
